<svg width="776" height="368" viewBox="0 0 776 368" fill="none" xmlns="http://www.w3.org/2000/svg">
<mask id="path-1-outside-1_428_1467" maskUnits="userSpaceOnUse" x="40" y="109" width="667" height="150" fill="black">
<rect fill="white" x="40" y="109" width="667" height="150"/>
<path d="M41.2 256V110H71.2V166H104.8V110H134.8V256H104.8V194H71.2V256H41.2ZM208.122 258C198.389 258 189.855 256.2 182.522 252.6C175.322 248.867 169.722 243.733 165.722 237.2C161.855 230.533 159.922 222.8 159.922 214V188C159.922 179.2 161.855 171.533 165.722 165C169.722 158.333 175.322 153.2 182.522 149.6C189.855 145.867 198.389 144 208.122 144C217.855 144 226.255 145.867 233.322 149.6C240.522 153.2 246.055 158.333 249.922 165C253.922 171.533 255.922 179.2 255.922 188V208H188.522V214C188.522 220.933 190.189 226.2 193.522 229.8C196.855 233.267 201.855 235 208.522 235C213.189 235 216.922 234.2 219.722 232.6C222.655 231 224.589 228.8 225.522 226H254.922C252.522 235.6 247.055 243.333 238.522 249.2C230.122 255.067 219.989 258 208.122 258ZM227.322 192.6V187.6C227.322 180.8 225.722 175.6 222.522 172C219.455 168.4 214.655 166.6 208.122 166.6C201.589 166.6 196.655 168.467 193.322 172.2C190.122 175.933 188.522 181.2 188.522 188V191L229.322 190.6L227.322 192.6ZM345.844 256C338.11 256 331.31 254.4 325.444 251.2C319.577 247.867 314.977 243.267 311.644 237.4C308.444 231.533 306.844 224.733 306.844 217V137H272.844V110H336.844V217C336.844 220.6 337.91 223.533 340.044 225.8C342.31 227.933 345.244 229 348.844 229H380.844V256H345.844ZM465.766 256C458.032 256 451.232 254.4 445.366 251.2C439.499 247.867 434.899 243.267 431.566 237.4C428.366 231.533 426.766 224.733 426.766 217V137H392.766V110H456.766V217C456.766 220.6 457.832 223.533 459.966 225.8C462.232 227.933 465.166 229 468.766 229H500.766V256H465.766ZM567.688 258C557.954 258 549.488 256.2 542.288 252.6C535.088 248.867 529.488 243.733 525.488 237.2C521.621 230.533 519.688 222.8 519.688 214V188C519.688 179.2 521.621 171.533 525.488 165C529.488 158.333 535.088 153.2 542.288 149.6C549.488 145.867 557.954 144 567.688 144C577.554 144 586.021 145.867 593.088 149.6C600.288 153.2 605.821 158.333 609.688 165C613.688 171.533 615.688 179.2 615.688 188V214C615.688 222.8 613.688 230.533 609.688 237.2C605.821 243.733 600.288 248.867 593.088 252.6C586.021 256.2 577.554 258 567.688 258ZM567.688 232C573.554 232 578.021 230.467 581.088 227.4C584.154 224.2 585.688 219.733 585.688 214V188C585.688 182.133 584.154 177.667 581.088 174.6C578.021 171.533 573.554 170 567.688 170C561.954 170 557.488 171.533 554.288 174.6C551.221 177.667 549.688 182.133 549.688 188V214C549.688 219.733 551.221 224.2 554.288 227.4C557.488 230.467 561.954 232 567.688 232ZM676.409 207L671.809 140V110H703.409V140L698.809 207H676.409ZM684.609 257C680.076 257 676.409 255.733 673.609 253.2C670.943 250.533 669.609 247.133 669.609 243C669.609 238.733 670.943 235.333 673.609 232.8C676.409 230.267 680.076 229 684.609 229H690.609C695.143 229 698.743 230.267 701.409 232.8C704.209 235.333 705.609 238.733 705.609 243C705.609 247.267 704.209 250.667 701.409 253.2C698.743 255.733 695.076 257 690.409 257H684.609Z"/>
</mask>
<path d="M41.2 256H40.2V257H41.2V256ZM41.2 110V109H40.2V110H41.2ZM71.2 110H72.2V109H71.2V110ZM71.2 166H70.2V167H71.2V166ZM104.8 166V167H105.8V166H104.8ZM104.8 110V109H103.8V110H104.8ZM134.8 110H135.8V109H134.8V110ZM134.8 256V257H135.8V256H134.8ZM104.8 256H103.8V257H104.8V256ZM104.8 194H105.8V193H104.8V194ZM71.2 194V193H70.2V194H71.2ZM71.2 256V257H72.2V256H71.2ZM42.2 256V110H40.2V256H42.2ZM41.2 111H71.2V109H41.2V111ZM70.2 110V166H72.2V110H70.2ZM71.2 167H104.8V165H71.2V167ZM105.8 166V110H103.8V166H105.8ZM104.8 111H134.8V109H104.8V111ZM133.8 110V256H135.8V110H133.8ZM134.8 255H104.8V257H134.8V255ZM105.8 256V194H103.8V256H105.8ZM104.8 193H71.2V195H104.8V193ZM70.2 194V256H72.2V194H70.2ZM71.2 255H41.2V257H71.2V255ZM182.522 252.6L182.062 253.488L182.071 253.493L182.081 253.498L182.522 252.6ZM165.722 237.2L164.857 237.702L164.863 237.712L164.869 237.722L165.722 237.2ZM165.722 165L164.864 164.485L164.861 164.491L165.722 165ZM182.522 149.6L182.969 150.494L182.976 150.491L182.522 149.6ZM233.322 149.6L232.855 150.484L232.865 150.489L232.875 150.494L233.322 149.6ZM249.922 165L249.057 165.502L249.063 165.512L249.069 165.522L249.922 165ZM255.922 208V209H256.922V208H255.922ZM188.522 208V207H187.522V208H188.522ZM193.522 229.8L192.788 230.479L192.795 230.486L192.801 230.493L193.522 229.8ZM219.722 232.6L219.243 231.722L219.234 231.727L219.226 231.732L219.722 232.6ZM225.522 226V225H224.801L224.573 225.684L225.522 226ZM254.922 226L255.892 226.243L256.203 225H254.922V226ZM238.522 249.2L237.955 248.376L237.949 248.38L238.522 249.2ZM227.322 192.6H226.322V195.014L228.029 193.307L227.322 192.6ZM222.522 172L221.761 172.648L221.767 172.656L221.774 172.664L222.522 172ZM193.322 172.2L192.576 171.534L192.569 171.542L192.563 171.549L193.322 172.2ZM188.522 191H187.522V192.01L188.532 192L188.522 191ZM229.322 190.6L230.029 191.307L231.76 189.576L229.312 189.6L229.322 190.6ZM208.122 257C198.512 257 190.135 255.223 182.963 251.702L182.081 253.498C189.576 257.177 198.265 259 208.122 259V257ZM182.982 251.712C175.934 248.058 170.474 243.047 166.575 236.678L164.869 237.722C168.97 244.42 174.71 249.676 182.062 253.488L182.982 251.712ZM166.587 236.698C162.821 230.205 160.922 222.649 160.922 214H158.922C158.922 222.951 160.89 230.862 164.857 237.702L166.587 236.698ZM160.922 214V188H158.922V214H160.922ZM160.922 188C160.922 179.35 162.821 171.865 166.582 165.509L164.861 164.491C160.89 171.201 158.922 179.05 158.922 188H160.922ZM166.579 165.514C170.478 159.017 175.933 154.013 182.969 150.494L182.075 148.706C174.711 152.387 168.966 157.65 164.864 164.486L166.579 165.514ZM182.976 150.491C190.145 146.841 198.518 145 208.122 145V143C198.26 143 189.566 144.892 182.068 148.709L182.976 150.491ZM208.122 145C217.727 145 225.96 146.842 232.855 150.484L233.789 148.716C226.55 144.892 217.983 143 208.122 143V145ZM232.875 150.494C239.908 154.011 245.293 159.012 249.057 165.502L250.787 164.498C246.818 157.655 241.136 152.389 233.769 148.706L232.875 150.494ZM249.069 165.522C252.959 171.876 254.922 179.356 254.922 188H256.922C256.922 179.044 254.885 171.191 250.775 164.478L249.069 165.522ZM254.922 188V208H256.922V188H254.922ZM255.922 207H188.522V209H255.922V207ZM187.522 208V214H189.522V208H187.522ZM187.522 214C187.522 221.081 189.224 226.63 192.788 230.479L194.256 229.121C191.153 225.77 189.522 220.785 189.522 214H187.522ZM192.801 230.493C196.386 234.222 201.691 236 208.522 236V234C202.02 234 197.324 232.311 194.243 229.107L192.801 230.493ZM208.522 236C213.29 236 217.214 235.185 220.218 233.468L219.226 231.732C216.63 233.215 213.087 234 208.522 234V236ZM220.201 233.478C223.324 231.774 225.447 229.388 226.471 226.316L224.573 225.684C223.731 228.212 221.986 230.226 219.243 231.722L220.201 233.478ZM225.522 227H254.922V225H225.522V227ZM253.952 225.757C251.614 235.109 246.298 242.64 237.955 248.376L239.088 250.024C247.812 244.026 253.43 236.091 255.892 226.243L253.952 225.757ZM237.949 248.38C229.743 254.112 219.817 257 208.122 257V259C220.16 259 230.501 256.022 239.094 250.02L237.949 248.38ZM228.322 192.6V187.6H226.322V192.6H228.322ZM228.322 187.6C228.322 180.655 226.688 175.182 223.269 171.336L221.774 172.664C224.756 176.018 226.322 180.945 226.322 187.6H228.322ZM223.283 171.352C219.962 167.453 214.831 165.6 208.122 165.6V167.6C214.479 167.6 218.949 169.347 221.761 172.648L223.283 171.352ZM208.122 165.6C201.396 165.6 196.153 167.528 192.576 171.534L194.068 172.866C197.158 169.405 201.781 167.6 208.122 167.6V165.6ZM192.563 171.549C189.157 175.523 187.522 181.052 187.522 188H189.522C189.522 181.348 191.087 176.344 194.081 172.851L192.563 171.549ZM187.522 188V191H189.522V188H187.522ZM188.532 192L229.332 191.6L229.312 189.6L188.512 190L188.532 192ZM228.615 189.893L226.615 191.893L228.029 193.307L230.029 191.307L228.615 189.893ZM325.444 251.2L324.95 252.069L324.957 252.074L324.965 252.078L325.444 251.2ZM311.644 237.4L310.766 237.879L310.77 237.886L310.774 237.894L311.644 237.4ZM306.844 137H307.844V136H306.844V137ZM272.844 137H271.844V138H272.844V137ZM272.844 110V109H271.844V110H272.844ZM336.844 110H337.844V109H336.844V110ZM340.044 225.8L339.316 226.485L339.336 226.507L339.358 226.528L340.044 225.8ZM380.844 229H381.844V228H380.844V229ZM380.844 256V257H381.844V256H380.844ZM345.844 255C338.251 255 331.621 253.43 325.923 250.322L324.965 252.078C331 255.37 337.97 257 345.844 257V255ZM325.938 250.331C320.228 247.086 315.758 242.616 312.513 236.906L310.774 237.894C314.197 243.917 318.926 248.647 324.95 252.069L325.938 250.331ZM312.522 236.921C309.414 231.223 307.844 224.593 307.844 217H305.844C305.844 224.874 307.474 231.844 310.766 237.879L312.522 236.921ZM307.844 217V137H305.844V217H307.844ZM306.844 136H272.844V138H306.844V136ZM273.844 137V110H271.844V137H273.844ZM272.844 111H336.844V109H272.844V111ZM335.844 110V217H337.844V110H335.844ZM335.844 217C335.844 220.812 336.98 224.004 339.316 226.485L340.772 225.115C338.84 223.062 337.844 220.388 337.844 217H335.844ZM339.358 226.528C341.84 228.863 345.032 230 348.844 230V228C345.456 228 342.781 227.003 340.729 225.072L339.358 226.528ZM348.844 230H380.844V228H348.844V230ZM379.844 229V256H381.844V229H379.844ZM380.844 255H345.844V257H380.844V255ZM445.366 251.2L444.872 252.069L444.879 252.074L444.887 252.078L445.366 251.2ZM431.566 237.4L430.688 237.879L430.692 237.886L430.696 237.894L431.566 237.4ZM426.766 137H427.766V136H426.766V137ZM392.766 137H391.766V138H392.766V137ZM392.766 110V109H391.766V110H392.766ZM456.766 110H457.766V109H456.766V110ZM459.966 225.8L459.237 226.485L459.258 226.507L459.28 226.528L459.966 225.8ZM500.766 229H501.766V228H500.766V229ZM500.766 256V257H501.766V256H500.766ZM465.766 255C458.173 255 451.543 253.43 445.844 250.322L444.887 252.078C450.922 255.37 457.891 257 465.766 257V255ZM445.86 250.331C440.15 247.086 435.679 242.616 432.435 236.906L430.696 237.894C434.119 243.917 438.848 248.647 444.872 252.069L445.86 250.331ZM432.444 236.921C429.335 231.223 427.766 224.593 427.766 217H425.766C425.766 224.874 427.396 231.844 430.688 237.879L432.444 236.921ZM427.766 217V137H425.766V217H427.766ZM426.766 136H392.766V138H426.766V136ZM393.766 137V110H391.766V137H393.766ZM392.766 111H456.766V109H392.766V111ZM455.766 110V217H457.766V110H455.766ZM455.766 217C455.766 220.812 456.902 224.004 459.237 226.485L460.694 225.115C458.762 223.062 457.766 220.388 457.766 217H455.766ZM459.28 226.528C461.761 228.863 464.954 230 468.766 230V228C465.378 228 462.703 227.003 460.651 225.072L459.28 226.528ZM468.766 230H500.766V228H468.766V230ZM499.766 229V256H501.766V229H499.766ZM500.766 255H465.766V257H500.766V255ZM542.288 252.6L541.827 253.488L541.834 253.491L541.84 253.494L542.288 252.6ZM525.488 237.2L524.622 237.702L524.628 237.712L524.635 237.722L525.488 237.2ZM525.488 165L524.63 164.485L524.627 164.491L525.488 165ZM542.288 149.6L542.735 150.494L542.741 150.491L542.748 150.488L542.288 149.6ZM593.088 149.6L592.62 150.484L592.63 150.489L592.64 150.494L593.088 149.6ZM609.688 165L608.822 165.502L608.828 165.512L608.835 165.522L609.688 165ZM609.688 237.2L608.83 236.685L608.827 236.691L609.688 237.2ZM593.088 252.6L593.541 253.491L593.548 253.488L593.088 252.6ZM581.088 227.4L581.795 228.107L581.802 228.1L581.809 228.092L581.088 227.4ZM554.288 174.6L553.596 173.878L553.588 173.885L553.58 173.893L554.288 174.6ZM554.288 227.4L553.566 228.092L553.58 228.107L553.596 228.122L554.288 227.4ZM567.688 257C558.077 257 549.77 255.223 542.735 251.706L541.84 253.494C549.205 257.177 557.831 259 567.688 259V257ZM542.748 251.712C535.7 248.058 530.24 243.047 526.34 236.678L524.635 237.722C528.735 244.42 534.475 249.676 541.827 253.488L542.748 251.712ZM526.353 236.698C522.586 230.205 520.688 222.649 520.688 214H518.688C518.688 222.951 520.655 230.862 524.622 237.702L526.353 236.698ZM520.688 214V188H518.688V214H520.688ZM520.688 188C520.688 179.35 522.586 171.865 526.348 165.509L524.627 164.491C520.655 171.201 518.688 179.05 518.688 188H520.688ZM526.345 165.514C530.244 159.017 535.698 154.013 542.735 150.494L541.84 148.706C534.477 152.387 528.731 157.65 524.63 164.486L526.345 165.514ZM542.748 150.488C549.78 146.842 558.083 145 567.688 145V143C557.826 143 549.195 144.892 541.827 148.712L542.748 150.488ZM567.688 145C577.429 145 585.728 146.843 592.62 150.484L593.555 148.716C586.314 144.891 577.679 143 567.688 143V145ZM592.64 150.494C599.674 154.011 605.058 159.012 608.822 165.502L610.553 164.498C606.583 157.655 600.901 152.389 593.535 148.706L592.64 150.494ZM608.835 165.522C612.725 171.876 614.688 179.356 614.688 188H616.688C616.688 179.044 614.65 171.191 610.54 164.478L608.835 165.522ZM614.688 188V214H616.688V188H614.688ZM614.688 214C614.688 222.643 612.725 230.194 608.83 236.686L610.545 237.714C614.65 230.873 616.688 222.957 616.688 214H614.688ZM608.827 236.691C605.062 243.052 599.673 248.059 592.627 251.712L593.548 253.488C600.902 249.674 606.579 244.415 610.548 237.709L608.827 236.691ZM592.634 251.709C585.738 255.222 577.434 257 567.688 257V259C577.674 259 586.304 257.178 593.541 253.491L592.634 251.709ZM567.688 233C573.723 233 578.482 231.42 581.795 228.107L580.38 226.693C577.56 229.514 573.385 231 567.688 231V233ZM581.809 228.092C585.102 224.656 586.688 219.913 586.688 214H584.688C584.688 219.554 583.206 223.744 580.366 226.708L581.809 228.092ZM586.688 214V188H584.688V214H586.688ZM586.688 188C586.688 181.964 585.107 177.206 581.795 173.893L580.38 175.307C583.201 178.128 584.688 182.302 584.688 188H586.688ZM581.795 173.893C578.482 170.58 573.723 169 567.688 169V171C573.385 171 577.56 172.486 580.38 175.307L581.795 173.893ZM567.688 169C561.775 169 557.032 170.585 553.596 173.878L554.979 175.322C557.943 172.482 562.133 171 567.688 171V169ZM553.58 173.893C550.268 177.206 548.688 181.964 548.688 188H550.688C550.688 182.302 552.174 178.128 554.995 175.307L553.58 173.893ZM548.688 188V214H550.688V188H548.688ZM548.688 214C548.688 219.913 550.273 224.656 553.566 228.092L555.009 226.708C552.169 223.744 550.688 219.554 550.688 214H548.688ZM553.596 228.122C557.032 231.415 561.775 233 567.688 233V231C562.133 231 557.943 229.518 554.979 226.678L553.596 228.122ZM676.409 207L675.412 207.068L675.476 208H676.409V207ZM671.809 140H670.809V140.034L670.812 140.068L671.809 140ZM671.809 110V109H670.809V110H671.809ZM703.409 110H704.409V109H703.409V110ZM703.409 140L704.407 140.068L704.409 140.034V140H703.409ZM698.809 207V208H699.743L699.807 207.068L698.809 207ZM673.609 253.2L672.902 253.907L672.92 253.925L672.938 253.942L673.609 253.2ZM673.609 232.8L672.938 232.058L672.929 232.067L672.921 232.075L673.609 232.8ZM701.409 232.8L700.721 233.525L700.729 233.533L700.738 233.542L701.409 232.8ZM701.409 253.2L700.738 252.458L700.729 252.467L700.721 252.475L701.409 253.2ZM677.407 206.932L672.807 139.931L670.812 140.068L675.412 207.068L677.407 206.932ZM672.809 140V110H670.809V140H672.809ZM671.809 111H703.409V109H671.809V111ZM702.409 110V140H704.409V110H702.409ZM702.412 139.931L697.812 206.932L699.807 207.068L704.407 140.068L702.412 139.931ZM698.809 206H676.409V208H698.809V206ZM684.609 256C680.272 256 676.861 254.793 674.28 252.458L672.938 253.942C675.958 256.673 679.881 258 684.609 258V256ZM674.316 252.493C671.856 250.033 670.609 246.896 670.609 243H668.609C668.609 247.371 670.029 251.034 672.902 253.907L674.316 252.493ZM670.609 243C670.609 238.96 671.862 235.839 674.298 233.525L672.921 232.075C670.023 234.828 668.609 238.507 668.609 243H670.609ZM674.28 233.542C676.861 231.207 680.272 230 684.609 230V228C679.881 228 675.958 229.327 672.938 232.058L674.28 233.542ZM684.609 230H690.609V228H684.609V230ZM690.609 230C694.949 230 698.281 231.207 700.721 233.525L702.098 232.075C699.205 229.326 695.336 228 690.609 228V230ZM700.738 233.542C703.301 235.86 704.609 238.975 704.609 243H706.609C706.609 238.491 705.118 234.807 702.08 232.058L700.738 233.542ZM704.609 243C704.609 247.025 703.301 250.14 700.738 252.458L702.08 253.942C705.118 251.193 706.609 247.509 706.609 243H704.609ZM700.721 252.475C698.286 254.788 694.892 256 690.409 256V258C695.261 258 699.199 256.679 702.098 253.925L700.721 252.475ZM690.409 256H684.609V258H690.409V256Z" fill="#212830" fill-opacity="0.3" mask="url(#path-1-outside-1_428_1467)"/>
</svg>
